<?xml version="1.0" standalone="no"?>
<!DOCTYPE svg PUBLIC "-//W3C//DTD SVG 20010904//EN"
 "http://www.w3.org/TR/2001/REC-SVG-20010904/DTD/svg10.dtd">
<svg version="1.0" xmlns="http://www.w3.org/2000/svg"
 width="1365.000000pt" height="193.000000pt" viewBox="0 0 1365.000000 193.000000"
 preserveAspectRatio="xMidYMid meet">
<metadata>
Created by potrace 1.16, written by Peter Selinger 2001-2019
</metadata>
<g transform="translate(0.000000,193.000000) scale(0.100000,-0.100000)"
fill="#000000" stroke="none">
<path d="M8077 1578 c-3 -13 -65 -277 -137 -588 -72 -311 -133 -571 -135 -578
-4 -10 6 -12 36 -10 l42 3 138 595 c77 327 139 595 139 597 0 2 -18 3 -39 3
-32 0 -40 -4 -44 -22z"/>
<path d="M10877 1568 c-3 -13 -65 -277 -137 -588 -72 -311 -133 -571 -135
-578 -4 -10 6 -12 37 -10 l42 3 24 112 25 113 123 95 c67 52 126 95 131 95 4
0 60 -95 123 -210 l115 -210 43 0 42 0 -19 37 c-10 21 -67 126 -126 233 -58
107 -107 198 -108 202 -1 3 91 79 206 167 114 89 207 164 207 166 0 3 -24 5
-54 5 l-55 0 -233 -182 c-128 -100 -261 -204 -296 -231 -35 -27 -64 -48 -66
-46 -1 2 41 191 95 419 54 228 98 418 98 423 1 4 -17 7 -38 7 -32 0 -40 -4
-44 -22z"/>
<path d="M2785 1554 c-197 -42 -368 -190 -452 -389 -46 -108 -64 -272 -44
-381 35 -184 163 -330 333 -379 90 -27 232 -25 323 3 84 25 174 78 233 135 46
45 49 40 27 -43 -22 -83 -21 -90 20 -90 28 0 36 5 40 23 47 187 131 564 128
570 -2 4 -114 7 -247 7 l-244 0 -6 -22 c-16 -61 -25 -58 199 -58 233 0 218 7
189 -91 -79 -269 -344 -427 -612 -364 -84 20 -130 45 -186 101 -83 82 -116
173 -116 320 0 179 56 321 175 439 107 107 224 155 377 155 201 0 358 -121
392 -302 7 -36 9 -38 46 -38 39 0 39 0 34 33 -50 283 -301 436 -609 371z"/>
<path d="M6801 1503 c-21 -81 -251 -1081 -251 -1092 0 -10 67 -12 283 -9 264
3 286 5 348 27 159 55 244 170 243 326 0 90 -55 178 -125 200 -19 6 -13 11 38
36 151 72 218 225 163 372 -36 97 -115 150 -251 167 -46 5 -163 10 -261 10
l-177 0 -10 -37z m447 -53 c115 -16 174 -65 188 -155 17 -117 -54 -226 -171
-261 -51 -16 -92 -19 -273 -17 -118 1 -215 3 -217 5 -2 1 20 101 48 221 l51
217 155 0 c86 0 184 -5 219 -10z m-27 -534 c96 -35 138 -114 118 -221 -16 -84
-55 -135 -133 -175 l-69 -35 -243 -3 c-187 -3 -244 -1 -244 9 0 6 23 108 50
226 28 118 50 217 50 220 0 3 96 3 213 0 161 -4 223 -9 258 -21z"/>
<path d="M8764 1220 c-112 -15 -192 -62 -248 -143 -19 -29 -38 -64 -42 -79 -6
-27 -5 -28 34 -28 38 0 42 3 62 45 45 93 130 135 269 135 156 -1 215 -49 209
-172 -2 -37 -7 -70 -10 -74 -4 -3 -83 -15 -175 -25 -275 -31 -348 -52 -425
-127 -94 -90 -88 -248 11 -320 55 -40 126 -56 220 -49 98 7 173 36 236 90 l50
44 -3 -58 -4 -59 35 0 35 0 7 58 c3 31 29 155 56 274 52 229 57 275 37 342
-33 110 -177 169 -354 146z m250 -427 c-34 -153 -77 -225 -170 -286 -120 -79
-322 -70 -375 17 -56 92 13 213 141 246 52 14 305 47 368 49 41 1 42 0 36 -26z"/>
<path d="M3910 1217 c0 -2 -25 -109 -57 -238 -49 -205 -56 -247 -57 -341 -1
-103 0 -108 29 -150 17 -23 51 -54 75 -68 39 -22 57 -25 140 -25 112 0 161 18
236 87 46 42 47 43 40 14 -22 -88 -22 -86 20 -86 l39 0 89 383 c49 210 91 392
94 405 4 19 0 22 -31 22 -20 0 -38 -4 -41 -9 -3 -4 -32 -121 -65 -259 -33
-138 -71 -274 -85 -304 -52 -109 -143 -175 -257 -185 -158 -15 -234 68 -208
226 7 48 55 259 114 509 5 20 2 22 -35 22 -22 0 -40 -2 -40 -3z"/>
<path d="M9892 1210 c-123 -18 -263 -123 -321 -242 -88 -179 -70 -375 44 -497
58 -62 127 -93 221 -99 178 -12 333 78 415 240 l29 58 -43 0 c-42 0 -45 -2
-63 -41 -62 -138 -240 -218 -390 -174 -177 51 -241 286 -134 495 31 60 102
127 168 158 49 23 70 27 148 27 83 0 94 -2 139 -30 59 -37 82 -67 105 -136 17
-51 21 -54 54 -57 33 -3 36 -1 36 22 0 52 -41 136 -90 186 -76 75 -192 108
-318 90z"/>
<path d="M4944 1183 c3 -16 38 -196 76 -401 l71 -373 -52 -82 c-29 -45 -79
-121 -111 -169 l-59 -88 48 0 48 1 373 563 c204 309 372 566 372 570 0 4 -19
6 -42 4 l-42 -3 -236 -358 c-129 -197 -236 -354 -237 -350 -1 5 -30 157 -63
338 -33 182 -62 340 -65 353 -5 18 -12 22 -46 22 -39 0 -40 -1 -35 -27z"/>
</g>
</svg>
